# xmcd
#
# Track frame offsets:
#	150
#	15437
#	32619
#	49275
#	67249
#	84867
#	99146
#	116375
#	133354
#	148567
#	166207
#
# Disc length: 2331 seconds
# Revision: 0
# Processed by: cddbd v1.5.2PL0 Copyright (c) Steve Scherf et al.
# Submitted via: dBpowerAMP V12.0
#
DISCID=8a09190b
DTITLE=Vassendgutane - Skru Opp!!
DYEAR=2015
DGENRE=Country
TTITLE0=Russerbart og hue
TTITLE1=Lika
TTITLE2=Kurwa Kurwa
TTITLE3=Berre ei øl
TTITLE4=Tyste bestefar
TTITLE5=Nachspel
TTITLE6=Milf og pils
TTITLE7=Naking
TTITLE8=Øle´ekje klart
TTITLE9=Ronny Ponny
TTITLE10=Fingrefant
EXTD=
EXTT0=
EXTT1=
EXTT2=
EXTT3=
EXTT4=
EXTT5=
EXTT6=
EXTT7=
EXTT8=
EXTT9=
EXTT10=
PLAYORDER=
